<svg width="128" height="128" viewBox="0 0 128 128" xmlns="http://www.w3.org/2000/svg">
  <!-- Background circle -->
  <circle cx="64" cy="64" r="64" fill="#0A66C2"/>
  
  <!-- Main document/post background -->
  <rect x="28" y="20" width="72" height="88" rx="8" fill="white"/>
  
  <!-- Document header line -->
  <rect x="36" y="32" width="56" height="4" rx="2" fill="#0A66C2" opacity="0.3"/>
  
  <!-- Generated content lines with gradient effect -->
  <g opacity="0.8">
    <rect x="36" y="44" width="48" height="3" rx="1.5" fill="url(#generatedGradient)"/>
    <rect x="36" y="52" width="56" height="3" rx="1.5" fill="url(#generatedGradient)"/>
    <rect x="36" y="60" width="44" height="3" rx="1.5" fill="url(#generatedGradient)"/>
    <rect x="36" y="68" width="52" height="3" rx="1.5" fill="url(#generatedGradient)"/>
    <rect x="36" y="76" width="40" height="3" rx="1.5" fill="url(#generatedGradient)"/>
  </g>
  
  <!-- AI Magic wand/generation symbol -->
  <g transform="translate(75, 85)">
    <!-- Wand body -->
    <line x1="0" y1="20" x2="16" y2="4" stroke="#FFD700" stroke-width="3" stroke-linecap="round"/>
    
    <!-- Wand tip -->
    <circle cx="16" cy="4" r="2" fill="#FFD700"/>
    
    <!-- Magic sparkles -->
    <g fill="#FFD700">
      <circle cx="20" cy="8" r="1.5"/>
      <circle cx="24" cy="12" r="1"/>
      <circle cx="18" cy="14" r="0.8"/>
      <polygon points="26,6 27,8 29,7 27,9" opacity="0.8"/>
      <polygon points="14,18 15,20 17,19 15,21" opacity="0.8"/>
    </g>
  </g>
  
  <!-- LinkedIn "in" logo in corner -->
  <g transform="translate(32, 88)" opacity="0.6">
    <!-- Letter "i" -->
    <circle cx="3" cy="3" r="1.5" fill="#0A66C2"/>
    <rect x="2" y="7" width="2" height="8" rx="1" fill="#0A66C2"/>
    
    <!-- Letter "n" -->
    <rect x="8" y="7" width="2" height="8" rx="1" fill="#0A66C2"/>
    <path d="M8 10 Q10 7 14 7 Q16 7 16 9 L16 15" stroke="#0A66C2" stroke-width="2" fill="none" stroke-linecap="round"/>
  </g>
  
  <!-- Gradient definitions -->
  <defs>
    <linearGradient id="generatedGradient" x1="0%" y1="0%" x2="100%" y2="0%">
      <stop offset="0%" style="stop-color:#0A66C2;stop-opacity:0.7" />
      <stop offset="50%" style="stop-color:#1B75D0;stop-opacity:0.9" />
      <stop offset="100%" style="stop-color:#2E8DE0;stop-opacity:0.6" />
    </linearGradient>
  </defs>
</svg>